<svg width="1697" height="520" viewBox="0 0 1697 520" fill="none" xmlns="http://www.w3.org/2000/svg" xmlns:xlink="http://www.w3.org/1999/xlink">
<g clip-path="url(#clip0_1498_1428)">
<g filter="url(#filter0_dddd_1498_1428)">
<g clip-path="url(#clip1_1498_1428)">
<path d="M46 224C46 217.373 51.3726 212 58 212H806C812.627 212 818 217.373 818 224V632.735C818 639.363 812.627 644.735 806 644.735H58C51.3726 644.735 46 639.363 46 632.735V224Z" fill="#372A5F"/>
<g clip-path="url(#clip2_1498_1428)">
<rect width="520.143" height="363" transform="matrix(-1 0 0 1 538.952 212)" fill="#6E54BD"/>
<rect width="520.143" height="363" transform="matrix(-1 0 0 1 538.952 212)" fill="black" fill-opacity="0.3"/>
<path fill-rule="evenodd" clip-rule="evenodd" d="M19.4438 339.286H97.8045V417.645H176.161V496.006H97.8045H97.8002H19.4438V417.646V417.645V339.286ZM176.163 484.813H254.524V574.368H176.163V484.813ZM97.8045 496.008H176.161V574.369H97.8045H97.8002H19.4438V496.008H97.8002H97.8045Z" fill="#6E54BD"/>
<path d="M462.886 307.714L469.259 280.749L475.674 307.714H481.721L488.054 279.114H484.499L478.575 306.448L472.16 279.114H466.399L460.026 306.284L454.061 279.114H450.506L456.921 307.714H462.886ZM432.692 307.714V304.16C434.244 306.611 436.777 308.123 440.046 308.123C445.807 308.123 449.893 303.506 449.893 297.663C449.893 291.821 445.807 287.204 440.046 287.204C436.777 287.204 434.244 288.716 432.692 291.126V287.613H429.546V307.714H432.692ZM446.542 297.663C446.542 301.831 443.641 305.099 439.637 305.099C435.879 305.099 432.692 302.117 432.692 297.663C432.692 292.761 436.246 290.227 439.637 290.227C443.641 290.227 446.542 293.496 446.542 297.663ZM419.379 315.069L417.05 307.714H419.951L426.284 287.613H422.852L416.846 307.02L410.758 287.613H407.367L415.988 315.069H419.379ZM397.598 308.205C400.948 308.205 404.625 306.856 406.137 303.465L403.727 301.831C402.705 303.792 400.417 305.345 397.557 305.345C394.779 305.345 393.267 303.996 393.267 302.158C393.267 300.483 394.738 299.625 397.189 298.971L399.232 298.44C403.563 297.296 405.32 295.457 405.32 292.924C405.32 289.86 402.746 287.122 398.047 287.122C394.043 287.122 391.388 289.247 390.407 291.208L392.94 292.801C393.88 291.249 395.719 289.941 398.17 289.941C400.744 289.941 401.97 291.249 401.97 292.72C401.97 294.436 400.213 295.089 398.007 295.661L395.923 296.233C391.674 297.337 389.999 299.216 389.999 301.953C389.999 305.712 393.185 308.205 397.598 308.205ZM364.923 308.205C373.217 308.205 379.468 301.953 379.468 293.414C379.468 284.875 373.217 278.624 364.923 278.624C356.629 278.624 350.337 284.875 350.337 293.414C350.337 301.953 356.629 308.205 364.923 308.205ZM375.954 293.414C375.954 300.156 371.256 304.977 364.923 304.977C358.631 304.977 353.851 300.156 353.851 293.414C353.851 286.673 358.631 281.852 364.923 281.852C371.256 281.852 375.954 286.673 375.954 293.414ZM341.462 307.714H344.731V290.309H347.836V287.613H344.731V284.467C344.731 280.463 342.892 278.583 338.97 278.583C337.744 278.583 336.233 278.91 335.456 279.319V282.301C336.437 281.811 337.499 281.525 338.562 281.525C340.4 281.525 341.462 282.424 341.462 284.467V287.613H335.456V290.309H341.462V307.714ZM462.886 352.714L469.259 325.749L475.674 352.714H481.721L488.054 324.114H484.499L478.575 351.448L472.16 324.114H466.399L460.026 351.284L454.061 324.114H450.506L456.921 352.714H462.886ZM439.433 353.164C445.398 353.164 449.893 348.71 449.893 342.663C449.893 336.617 445.398 332.163 439.433 332.163C433.468 332.163 428.974 336.617 428.974 342.663C428.974 348.71 433.468 353.164 439.433 353.164ZM446.542 342.663C446.542 346.994 443.478 350.099 439.433 350.099C435.388 350.099 432.324 346.994 432.324 342.663C432.324 338.333 435.388 335.227 439.433 335.227C443.478 335.227 446.542 338.333 446.542 342.663ZM425.169 352.714V332.613H421.941V335.84C420.879 333.552 418.713 332.245 416.099 332.245C415.527 332.245 415.077 332.286 414.873 332.327V335.35C415.281 335.268 415.772 335.227 416.221 335.227C419.571 335.227 421.9 337.638 421.9 341.969V352.714H425.169ZM398.811 352.714L408.535 341.724L399.424 332.613H395.256L404.49 341.724L394.521 352.714H398.811ZM411.803 352.714V324.114H408.535V352.714H411.803ZM391.814 352.714V332.613H388.545V352.714H391.814ZM392.263 327.587C392.263 326.443 391.324 325.504 390.18 325.504C388.995 325.504 388.055 326.443 388.055 327.587C388.055 328.772 388.995 329.712 390.18 329.712C391.324 329.712 392.263 328.772 392.263 327.587ZM383.633 352.714V332.613H380.406V335.922C379.098 333.43 376.524 332.204 373.583 332.204C369.211 332.204 366.269 334.778 366.269 339.558V352.714H369.538V340.416C369.538 336.739 371.049 335.187 374.236 335.187C377.627 335.187 380.365 337.597 380.365 341.724V352.714H383.633ZM358.545 354.226C357.482 356.105 355.317 357.576 352.253 357.576C348.289 357.576 345.879 354.757 345.879 350.876V349.037C347.431 351.284 349.842 352.714 352.988 352.714C358.708 352.714 362.712 348.179 362.712 342.459C362.712 336.739 358.708 332.204 352.988 332.204C349.76 332.204 347.309 333.634 345.797 335.963V332.613H342.61V350.957C342.61 356.351 346.328 360.559 352.293 360.559C356.583 360.559 359.934 358.639 361.405 355.656L358.545 354.226ZM359.362 342.459C359.362 346.545 356.543 349.732 352.579 349.732C348.902 349.732 345.797 346.831 345.797 342.459C345.797 337.679 349.229 335.227 352.579 335.227C356.543 335.227 359.362 338.373 359.362 342.459Z" fill="#FF80AB"/>
<path d="M462.886 307.714L469.259 280.749L475.674 307.714H481.721L488.054 279.114H484.499L478.575 306.448L472.16 279.114H466.399L460.026 306.284L454.061 279.114H450.506L456.921 307.714H462.886ZM432.692 307.714V304.16C434.244 306.611 436.777 308.123 440.046 308.123C445.807 308.123 449.893 303.506 449.893 297.663C449.893 291.821 445.807 287.204 440.046 287.204C436.777 287.204 434.244 288.716 432.692 291.126V287.613H429.546V307.714H432.692ZM446.542 297.663C446.542 301.831 443.641 305.099 439.637 305.099C435.879 305.099 432.692 302.117 432.692 297.663C432.692 292.761 436.246 290.227 439.637 290.227C443.641 290.227 446.542 293.496 446.542 297.663ZM419.379 315.069L417.05 307.714H419.951L426.284 287.613H422.852L416.846 307.02L410.758 287.613H407.367L415.988 315.069H419.379ZM397.598 308.205C400.948 308.205 404.625 306.856 406.137 303.465L403.727 301.831C402.705 303.792 400.417 305.345 397.557 305.345C394.779 305.345 393.267 303.996 393.267 302.158C393.267 300.483 394.738 299.625 397.189 298.971L399.232 298.44C403.563 297.296 405.32 295.457 405.32 292.924C405.32 289.86 402.746 287.122 398.047 287.122C394.043 287.122 391.388 289.247 390.407 291.208L392.94 292.801C393.88 291.249 395.719 289.941 398.17 289.941C400.744 289.941 401.97 291.249 401.97 292.72C401.97 294.436 400.213 295.089 398.007 295.661L395.923 296.233C391.674 297.337 389.999 299.216 389.999 301.953C389.999 305.712 393.185 308.205 397.598 308.205ZM364.923 308.205C373.217 308.205 379.468 301.953 379.468 293.414C379.468 284.875 373.217 278.624 364.923 278.624C356.629 278.624 350.337 284.875 350.337 293.414C350.337 301.953 356.629 308.205 364.923 308.205ZM375.954 293.414C375.954 300.156 371.256 304.977 364.923 304.977C358.631 304.977 353.851 300.156 353.851 293.414C353.851 286.673 358.631 281.852 364.923 281.852C371.256 281.852 375.954 286.673 375.954 293.414ZM341.462 307.714H344.731V290.309H347.836V287.613H344.731V284.467C344.731 280.463 342.892 278.583 338.97 278.583C337.744 278.583 336.233 278.91 335.456 279.319V282.301C336.437 281.811 337.499 281.525 338.562 281.525C340.4 281.525 341.462 282.424 341.462 284.467V287.613H335.456V290.309H341.462V307.714ZM462.886 352.714L469.259 325.749L475.674 352.714H481.721L488.054 324.114H484.499L478.575 351.448L472.16 324.114H466.399L460.026 351.284L454.061 324.114H450.506L456.921 352.714H462.886ZM439.433 353.164C445.398 353.164 449.893 348.71 449.893 342.663C449.893 336.617 445.398 332.163 439.433 332.163C433.468 332.163 428.974 336.617 428.974 342.663C428.974 348.71 433.468 353.164 439.433 353.164ZM446.542 342.663C446.542 346.994 443.478 350.099 439.433 350.099C435.388 350.099 432.324 346.994 432.324 342.663C432.324 338.333 435.388 335.227 439.433 335.227C443.478 335.227 446.542 338.333 446.542 342.663ZM425.169 352.714V332.613H421.941V335.84C420.879 333.552 418.713 332.245 416.099 332.245C415.527 332.245 415.077 332.286 414.873 332.327V335.35C415.281 335.268 415.772 335.227 416.221 335.227C419.571 335.227 421.9 337.638 421.9 341.969V352.714H425.169ZM398.811 352.714L408.535 341.724L399.424 332.613H395.256L404.49 341.724L394.521 352.714H398.811ZM411.803 352.714V324.114H408.535V352.714H411.803ZM391.814 352.714V332.613H388.545V352.714H391.814ZM392.263 327.587C392.263 326.443 391.324 325.504 390.18 325.504C388.995 325.504 388.055 326.443 388.055 327.587C388.055 328.772 388.995 329.712 390.18 329.712C391.324 329.712 392.263 328.772 392.263 327.587ZM383.633 352.714V332.613H380.406V335.922C379.098 333.43 376.524 332.204 373.583 332.204C369.211 332.204 366.269 334.778 366.269 339.558V352.714H369.538V340.416C369.538 336.739 371.049 335.187 374.236 335.187C377.627 335.187 380.365 337.597 380.365 341.724V352.714H383.633ZM358.545 354.226C357.482 356.105 355.317 357.576 352.253 357.576C348.289 357.576 345.879 354.757 345.879 350.876V349.037C347.431 351.284 349.842 352.714 352.988 352.714C358.708 352.714 362.712 348.179 362.712 342.459C362.712 336.739 358.708 332.204 352.988 332.204C349.76 332.204 347.309 333.634 345.797 335.963V332.613H342.61V350.957C342.61 356.351 346.328 360.559 352.293 360.559C356.583 360.559 359.934 358.639 361.405 355.656L358.545 354.226ZM359.362 342.459C359.362 346.545 356.543 349.732 352.579 349.732C348.902 349.732 345.797 346.831 345.797 342.459C345.797 337.679 349.229 335.227 352.579 335.227C356.543 335.227 359.362 338.373 359.362 342.459Z" fill="white" fill-opacity="0.8"/>
</g>
</g>
</g>
<g filter="url(#filter1_dddd_1498_1428)">
<g clip-path="url(#clip3_1498_1428)">
<path d="M265.5 117C265.5 110.373 270.873 105 277.5 105H1145.5C1152.13 105 1157.5 110.373 1157.5 117V593C1157.5 599.627 1152.13 605 1145.5 605H277.5C270.873 605 265.5 599.627 265.5 593V117Z" fill="#6E54BD"/>
<g clip-path="url(#clip4_1498_1428)">
<rect width="936.06" height="623.141" transform="matrix(-1 0 0 1 1157 -4.07056)" fill="#FFC738"/>
<rect width="936.06" height="623.141" transform="matrix(-1 0 0 1 1157 -4.07056)" fill="#FFD9D8"/>
<path d="M1053.27 164.833V121.207H1070.24V115.737H1030.54V121.207H1047.45V164.833H1053.27ZM1016.65 165.604C1026.75 165.604 1034.4 157.749 1034.4 147.579C1034.4 137.339 1026.82 129.554 1016.72 129.554C1006.62 129.554 999.328 137.269 999.118 147.018L1028.3 151.226C1026.89 156.767 1022.19 160.414 1016.58 160.414C1011.32 160.414 1007.25 157.468 1005.36 152.909L1000.17 154.663C1002.77 161.045 1009.01 165.604 1016.65 165.604ZM1028.79 146.597L1005.43 143.23C1007.18 137.549 1011.18 134.674 1016.72 134.674C1023.67 134.674 1028.37 139.583 1028.79 146.597ZM965.554 164.833V158.731C968.219 162.939 972.568 165.534 978.179 165.534C988.068 165.534 995.082 157.609 995.082 147.579C995.082 137.549 988.068 129.624 978.179 129.624C972.568 129.624 968.219 132.219 965.554 136.357V130.325H960.154V164.833H965.554ZM989.331 147.579C989.331 154.733 984.351 160.344 977.477 160.344C971.025 160.344 965.554 155.224 965.554 147.579C965.554 139.162 971.656 134.814 977.477 134.814C984.351 134.814 989.331 140.425 989.331 147.579ZM951.818 164.833V130.325H946.277V135.585C944.173 131.658 940.316 129.624 936.037 129.624C931.338 129.624 927.481 131.798 926.008 136.217C923.763 132.079 919.625 129.624 914.786 129.624C908.333 129.624 903.704 133.411 903.704 141.056V164.833H909.315V142.248C909.315 136.918 911.7 134.744 916.118 134.744C920.607 134.744 924.956 138.461 924.956 145.054V164.833H930.567V142.248C930.567 136.918 932.951 134.744 937.37 134.744C941.859 134.744 946.207 138.461 946.207 145.054V164.833H951.818ZM1058.81 240.833H1064.42V210.954H1069.75V206.325H1064.42V200.925C1064.42 194.051 1061.26 190.825 1054.53 190.825C1052.43 190.825 1049.83 191.386 1048.5 192.087V197.207C1050.18 196.366 1052.01 195.875 1053.83 195.875C1056.99 195.875 1058.81 197.418 1058.81 200.925V206.325H1048.5V210.954H1058.81V240.833ZM1030.28 241.604C1040.38 241.604 1048.03 233.749 1048.03 223.579C1048.03 213.339 1040.45 205.554 1030.35 205.554C1020.25 205.554 1012.96 213.269 1012.75 223.018L1041.93 227.226C1040.52 232.767 1035.82 236.414 1030.21 236.414C1024.95 236.414 1020.88 233.468 1018.99 228.909L1013.8 230.663C1016.4 237.045 1022.64 241.604 1030.28 241.604ZM1042.42 222.597L1019.06 219.23C1020.81 213.549 1024.81 210.674 1030.35 210.674C1037.3 210.674 1042 215.583 1042.42 222.597ZM990.967 241.604C1001.07 241.604 1008.71 233.749 1008.71 223.579C1008.71 213.339 1001.14 205.554 991.037 205.554C980.938 205.554 973.643 213.269 973.433 223.018L1002.61 227.226C1001.21 232.767 996.508 236.414 990.897 236.414C985.637 236.414 981.569 233.468 979.675 228.909L974.485 230.663C977.08 237.045 983.322 241.604 990.967 241.604ZM1003.1 222.597L979.745 219.23C981.499 213.549 985.497 210.674 991.037 210.674C997.981 210.674 1002.68 215.583 1003.1 222.597ZM952.494 241.534C962.383 241.534 969.397 233.609 969.397 223.579C969.397 213.549 962.383 205.624 952.494 205.624C947.023 205.624 942.745 208.079 940.08 212.006V191.737H934.469V240.833H939.869V234.731C942.534 238.939 946.883 241.534 952.494 241.534ZM963.646 223.579C963.646 230.733 958.666 236.344 951.792 236.344C945.34 236.344 939.869 231.224 939.869 223.579C939.869 215.162 945.971 210.814 951.792 210.814C958.666 210.814 963.646 216.425 963.646 223.579ZM908.178 241.534C913.789 241.534 918.138 238.939 920.803 234.731V240.833H926.203V191.737H920.592V212.006C917.927 208.079 913.649 205.624 908.178 205.624C898.289 205.624 891.275 213.549 891.275 223.579C891.275 233.609 898.289 241.534 908.178 241.534ZM920.803 223.579C920.803 231.224 915.332 236.344 908.88 236.344C902.006 236.344 897.026 230.733 897.026 223.579C897.026 216.425 902.006 210.814 908.88 210.814C914.701 210.814 920.803 215.162 920.803 223.579ZM857.129 240.833V234.731C859.795 238.939 864.143 241.534 869.754 241.534C879.643 241.534 886.657 233.609 886.657 223.579C886.657 213.549 879.643 205.624 869.754 205.624C864.143 205.624 859.795 208.219 857.129 212.357V206.325H851.729V240.833H857.129ZM880.906 223.579C880.906 230.733 875.926 236.344 869.053 236.344C862.6 236.344 857.129 231.224 857.129 223.579C857.129 215.162 863.231 210.814 869.053 210.814C875.926 210.814 880.906 216.425 880.906 223.579ZM827.613 241.604C837.782 241.604 845.287 233.819 845.287 223.579C845.287 213.339 837.782 205.554 827.613 205.554C820.038 205.554 813.936 209.902 811.411 216.355L816.671 218.108C818.565 213.69 822.493 210.744 827.613 210.744C834.276 210.744 839.536 216.074 839.536 223.579C839.536 231.084 834.276 236.414 827.613 236.414C822.493 236.414 818.565 233.468 816.671 229.05L811.411 230.803C813.936 237.326 820.038 241.604 827.613 241.604ZM783.557 240.833L800.25 221.966L784.609 206.325H777.455L793.306 221.966L776.193 240.833H783.557ZM805.861 240.833V191.737H800.25V240.833H805.861Z" fill="#1B1B1B"/>
<circle cx="83.625" cy="83.625" r="83.625" transform="matrix(-1 0 0 1 550.046 387.079)" fill="#FF403D"/>
<circle cx="83.625" cy="83.625" r="83.625" transform="matrix(-1 0 0 1 550.046 387.079)" fill="black" fill-opacity="0.3"/>
<circle cx="83.625" cy="83.625" r="83.625" transform="matrix(-1 0 0 1 493.397 387.079)" fill="#FF403D"/>
<circle cx="83.625" cy="83.625" r="83.625" transform="matrix(-1 0 0 1 493.397 387.079)" fill="#FF403D"/>
</g>
</g>
</g>
<g filter="url(#filter2_dddd_1498_1428)">
<g clip-path="url(#clip5_1498_1428)">
<path d="M878.5 224C878.5 217.373 883.873 212 890.5 212H1638.5C1645.13 212 1650.5 217.373 1650.5 224V632.735C1650.5 639.363 1645.13 644.735 1638.5 644.735H890.5C883.873 644.735 878.5 639.363 878.5 632.735V224Z" fill="#372A5F"/>
<g clip-path="url(#clip6_1498_1428)">
<rect x="919.669" y="168.845" width="810.133" height="539.31" fill="#969CF5"/>
<rect x="919.669" y="168.845" width="810.133" height="539.31" fill="white" fill-opacity="0.8"/>
<mask id="mask0_1498_1428" style="mask-type:alpha" maskUnits="userSpaceOnUse" x="1210" y="346" width="529" height="241">
<rect x="1210.63" y="346.331" width="528.369" height="240.061" fill="#D9D9D9"/>
</mask>
<g mask="url(#mask0_1498_1428)">
<circle cx="1468.93" cy="601.69" r="161.217" stroke="#969CF5" stroke-width="164.748"/>
</g>
<path d="M1025.29 314.232V294.504H1002.59V314.232H997.549V271.741H1002.59V289.769H1025.29V271.741H1030.33V314.232H1025.29ZM1051.87 314.9C1043.01 314.9 1036.33 308.283 1036.33 299.299C1036.33 290.315 1043.01 283.699 1051.87 283.699C1060.73 283.699 1067.41 290.315 1067.41 299.299C1067.41 308.283 1060.73 314.9 1051.87 314.9ZM1041.31 299.299C1041.31 305.734 1045.86 310.347 1051.87 310.347C1057.88 310.347 1062.43 305.734 1062.43 299.299C1062.43 292.865 1057.88 288.252 1051.87 288.252C1045.86 288.252 1041.31 292.865 1041.31 299.299ZM1077.02 314.232L1070.59 284.367H1075.57L1081.46 312.472L1087.4 284.367H1095.84L1101.85 312.532L1107.74 284.367H1112.54L1106.1 314.232H1097.72L1091.65 286.309L1085.58 314.232H1077.02ZM1153.18 314.232V308.951C1150.87 312.593 1147.11 314.839 1142.25 314.839C1133.69 314.839 1127.62 307.98 1127.62 299.299C1127.62 290.619 1133.69 283.76 1142.25 283.76C1147.11 283.76 1150.87 286.006 1153.18 289.587V284.367H1157.85V314.232H1153.18ZM1132.6 299.299C1132.6 305.491 1136.91 310.347 1142.86 310.347C1148.44 310.347 1153.18 305.916 1153.18 299.299C1153.18 292.015 1147.9 288.252 1142.86 288.252C1136.91 288.252 1132.6 293.108 1132.6 299.299ZM1165.06 314.232V284.367H1169.86V289.162C1171.44 285.763 1174.66 283.82 1178.54 283.82C1179.39 283.82 1180.06 283.881 1180.36 283.942V288.434C1179.75 288.312 1179.03 288.252 1178.36 288.252C1173.38 288.252 1169.92 291.833 1169.92 298.267V314.232H1165.06ZM1196.86 314.9C1188.12 314.9 1181.51 308.101 1181.51 299.299C1181.51 290.437 1188.06 283.699 1196.8 283.699C1205.54 283.699 1211.86 290.376 1212.04 298.814L1186.79 302.456C1188 307.251 1192.07 310.408 1196.92 310.408C1201.48 310.408 1205 307.858 1206.64 303.913L1211.13 305.43C1208.88 310.954 1203.48 314.9 1196.86 314.9ZM1186.36 298.449L1206.58 295.536C1205.06 290.619 1201.6 288.13 1196.8 288.13C1190.79 288.13 1186.73 292.379 1186.36 298.449ZM1001.86 378.232L995.425 348.367H1000.4L1006.29 376.472L1012.24 348.367H1020.68L1026.69 376.532L1032.57 348.367H1037.37L1030.94 378.232H1022.56L1016.49 350.309L1010.42 378.232H1001.86ZM1055.96 378.9C1047.22 378.9 1040.6 372.101 1040.6 363.299C1040.6 354.437 1047.16 347.699 1055.9 347.699C1064.64 347.699 1070.95 354.376 1071.13 362.814L1045.88 366.456C1047.09 371.251 1051.16 374.408 1056.02 374.408C1060.57 374.408 1064.09 371.858 1065.73 367.913L1070.22 369.43C1067.98 374.954 1062.57 378.9 1055.96 378.9ZM1045.46 362.449L1065.67 359.536C1064.15 354.619 1060.69 352.13 1055.9 352.13C1049.89 352.13 1045.82 356.379 1045.46 362.449ZM1101.05 378.839C1092.49 378.839 1086.42 371.98 1086.42 363.299C1086.42 354.619 1092.49 347.76 1101.05 347.76C1105.79 347.76 1109.49 349.884 1111.8 353.284V335.741H1116.65V378.232H1111.98V372.951C1109.67 376.593 1105.91 378.839 1101.05 378.839ZM1091.4 363.299C1091.4 369.491 1095.71 374.347 1101.66 374.347C1107.24 374.347 1111.98 369.916 1111.98 363.299C1111.98 356.015 1106.7 352.252 1101.66 352.252C1095.71 352.252 1091.4 357.108 1091.4 363.299ZM1137.77 378.9C1128.9 378.9 1122.23 372.283 1122.23 363.299C1122.23 354.315 1128.9 347.699 1137.77 347.699C1146.63 347.699 1153.31 354.315 1153.31 363.299C1153.31 372.283 1146.63 378.9 1137.77 378.9ZM1127.2 363.299C1127.2 369.734 1131.76 374.347 1137.77 374.347C1143.78 374.347 1148.33 369.734 1148.33 363.299C1148.33 356.865 1143.78 352.252 1137.77 352.252C1131.76 352.252 1127.2 356.865 1127.2 363.299ZM1158.9 378.232V348.367H1163.75V378.232H1158.9ZM1158.23 340.9C1158.23 339.201 1159.63 337.805 1161.33 337.805C1163.09 337.805 1164.48 339.201 1164.48 340.9C1164.48 342.661 1163.09 344.057 1161.33 344.057C1159.63 344.057 1158.23 342.661 1158.23 340.9ZM1171.05 378.232V348.367H1175.85V353.284C1177.79 349.581 1181.61 347.76 1185.98 347.76C1192.48 347.76 1196.85 351.584 1196.85 358.686V378.232H1191.99V359.961C1191.99 354.498 1189.75 352.191 1185.01 352.191C1179.97 352.191 1175.91 355.772 1175.91 361.903V378.232H1171.05ZM1208.33 380.478C1209.9 383.27 1213.12 385.455 1217.67 385.455C1223.56 385.455 1227.14 381.267 1227.14 375.5V372.769C1224.84 376.107 1221.26 378.232 1216.58 378.232C1208.08 378.232 1202.13 371.494 1202.13 362.996C1202.13 354.498 1208.08 347.76 1216.58 347.76C1221.38 347.76 1225.02 349.884 1227.27 353.344V348.367H1232V375.622C1232 383.634 1226.48 389.887 1217.61 389.887C1211.24 389.887 1206.26 387.034 1204.08 382.602L1208.33 380.478ZM1207.11 362.996C1207.11 369.066 1211.3 373.801 1217.19 373.801C1222.65 373.801 1227.27 369.491 1227.27 362.996C1227.27 355.894 1222.17 352.252 1217.19 352.252C1211.3 352.252 1207.11 356.926 1207.11 362.996ZM1246.26 368.034C1246.08 362.207 1246.63 359.414 1250.63 355.712L1252.52 354.012C1254.76 351.948 1257.25 349.52 1257.25 346.121C1257.25 342.418 1254.58 339.747 1250.21 339.747C1245.72 339.747 1242.8 342.479 1241.47 346.971L1236.79 345.453C1238.25 340.172 1242.62 335.194 1250.21 335.194C1257.68 335.194 1262.41 339.868 1262.41 345.939C1262.41 351.038 1258.83 354.376 1255.85 357.168L1253.97 358.929C1251.48 361.235 1250.94 363.299 1250.94 366.152V368.034H1246.26ZM1245.47 375.5C1245.47 373.74 1246.87 372.405 1248.69 372.405C1250.51 372.405 1251.91 373.74 1251.91 375.5C1251.91 377.321 1250.51 378.717 1248.69 378.717C1246.87 378.717 1245.47 377.321 1245.47 375.5Z" fill="#1B1B1B"/>
<path opacity="0.5" d="M992.82 394.141L1080.37 388.304L1012.66 399.978H1039.51" stroke="#6E54BD" stroke-width="4.66935" stroke-linecap="round"/>
</g>
</g>
</g>
<g filter="url(#filter3_dddd_1498_1428)">
<g clip-path="url(#clip7_1498_1428)">
<path d="M535.5 117C535.5 110.373 540.873 105 547.5 105H1415.5C1422.13 105 1427.5 110.373 1427.5 117V593C1427.5 599.627 1422.13 605 1415.5 605H547.5C540.873 605 535.5 599.627 535.5 593V117Z" fill="#6E54BD"/>
<g clip-path="url(#clip8_1498_1428)">
<rect x="533.333" y="83.9294" width="896.899" height="623.141" fill="#FFC738"/>
<rect x="533.333" y="83.9294" width="896.899" height="623.141" fill="white" fill-opacity="0.7"/>
<path d="M626.108 244.511C618.534 244.511 609.416 241.215 605.839 233.149L610.468 230.133C613.133 235.323 618.954 239.111 626.179 239.111C633.824 239.111 637.891 235.323 637.891 230.344C637.891 225.504 633.543 223.26 627.371 221.577L622.672 220.314C612.432 217.649 608.083 213.511 608.083 207.409C608.083 200.325 614.255 193.943 624.916 193.943C633.964 193.943 640.416 198.922 642.731 203.481L638.032 206.637C635.717 202.71 630.948 199.343 624.776 199.343C617.622 199.343 614.115 202.99 614.115 207.058C614.115 211.828 619.445 213.581 624.776 215.054L629.615 216.316C639.154 218.911 643.923 223.12 643.923 229.993C643.923 238.69 636.559 244.511 626.108 244.511ZM657.61 195.205L657.61 209.232L668.832 209.232L668.832 213.862L657.61 213.862L657.61 234.271C657.61 237.778 659.434 239.321 662.66 239.321C664.484 239.321 666.307 238.83 667.921 237.989L667.921 243.109C666.448 243.81 663.923 244.371 661.819 244.371C655.085 244.371 651.999 241.145 651.999 234.271L651.999 213.862L646.669 213.862L646.669 209.232L651.999 209.232L651.999 200.325L657.61 195.205ZM700.181 243.74L700.181 237.638C697.516 241.846 693.167 244.441 687.556 244.441C677.667 244.441 670.653 236.516 670.653 226.486C670.653 216.457 677.667 208.531 687.556 208.531C693.167 208.531 697.516 211.126 700.181 215.264L700.181 209.232L705.581 209.232L705.581 243.74L700.181 243.74ZM676.404 226.486C676.404 233.64 681.384 239.251 688.258 239.251C694.71 239.251 700.181 234.131 700.181 226.486C700.181 218.07 694.079 213.721 688.258 213.721C681.384 213.721 676.404 219.332 676.404 226.486ZM713.917 243.74L713.917 209.232L719.458 209.232L719.458 214.773C721.281 210.846 724.998 208.601 729.487 208.601C730.469 208.601 731.241 208.671 731.591 208.742L731.591 213.932C730.89 213.791 730.048 213.721 729.277 213.721C723.526 213.721 719.528 217.859 719.528 225.294L719.528 243.74L713.917 243.74ZM745.487 195.205L745.487 209.232L756.709 209.233L756.709 213.862L745.487 213.862L745.487 234.271C745.487 237.778 747.311 239.321 750.537 239.321C752.361 239.321 754.184 238.83 755.797 237.989L755.797 243.109C754.325 243.81 751.8 244.371 749.696 244.371C742.962 244.371 739.876 241.145 739.876 234.271L739.876 213.862L734.546 213.862L734.546 209.232L739.876 209.232L739.876 200.325L745.487 195.205ZM764.165 244.301C762.061 244.301 760.448 242.688 760.448 240.584C760.448 238.55 762.061 237.007 764.165 237.007C766.269 237.007 767.882 238.55 767.882 240.584C767.882 242.688 766.269 244.301 764.165 244.301ZM805.492 244.511C797.918 244.511 788.8 241.215 785.223 233.149L789.852 230.133C792.517 235.324 798.338 239.111 805.562 239.111C813.207 239.111 817.275 235.324 817.275 230.344C817.275 225.504 812.927 223.26 806.755 221.577L802.056 220.314C791.816 217.649 787.467 213.511 787.467 207.409C787.467 200.325 793.639 193.943 804.3 193.943C813.348 193.943 819.8 198.922 822.115 203.481L817.416 206.637C815.101 202.71 810.332 199.343 804.16 199.343C797.006 199.343 793.499 202.99 793.499 207.058C793.499 211.828 798.829 213.581 804.16 215.054L808.999 216.316C818.538 218.911 823.307 223.12 823.307 229.993C823.307 238.69 815.943 244.511 805.492 244.511ZM836.994 195.205L836.994 209.233L848.216 209.233L848.216 213.862L836.994 213.862L836.994 234.271C836.994 237.778 838.818 239.321 842.044 239.321C843.868 239.321 845.691 238.83 847.304 237.989L847.304 243.109C845.832 243.81 843.307 244.371 841.203 244.371C834.469 244.371 831.383 241.145 831.383 234.271L831.383 213.862L826.053 213.862L826.053 209.233L831.383 209.233L831.383 200.325L836.994 195.205ZM867.992 244.511C857.752 244.511 850.037 236.867 850.037 226.486C850.037 216.106 857.752 208.461 867.992 208.461C878.232 208.461 885.947 216.106 885.947 226.486C885.947 236.867 878.232 244.511 867.992 244.511ZM855.788 226.486C855.788 233.921 861.049 239.251 867.992 239.251C874.936 239.251 880.196 233.921 880.196 226.486C880.196 219.052 874.936 213.721 867.992 213.721C861.049 213.721 855.788 219.052 855.788 226.486ZM910.083 244.441C904.612 244.441 900.334 241.987 897.669 238.059L897.669 256.365L892.058 256.365L892.058 209.233L897.458 209.233L897.458 215.334C900.124 211.126 904.472 208.531 910.083 208.531C919.973 208.531 926.986 216.457 926.986 226.486C926.986 236.516 919.972 244.441 910.083 244.441ZM897.458 226.486C897.458 234.903 903.56 239.251 909.382 239.251C916.255 239.251 921.235 233.64 921.235 226.486C921.235 219.332 916.255 213.721 909.382 213.721C902.929 213.721 897.458 218.841 897.458 226.486ZM933.412 244.301C931.308 244.301 929.695 242.688 929.695 240.584C929.695 238.55 931.308 237.007 933.412 237.007C935.516 237.007 937.129 238.55 937.129 240.584C937.129 242.688 935.516 244.301 933.412 244.301ZM631.369 318.652C617.271 318.652 606.821 307.57 606.821 293.192C606.821 278.744 617.341 267.732 631.369 267.732C642.03 267.732 650.446 273.904 654.023 283.022L648.482 284.916C645.536 277.762 639.294 273.273 631.509 273.273C621.129 273.273 612.853 281.479 612.853 293.192C612.853 304.835 621.129 313.111 631.509 313.111C639.434 313.111 645.536 308.412 648.482 301.468L654.023 303.292C650.516 312.41 642.1 318.652 631.369 318.652ZM676.279 318.511C666.039 318.511 658.324 310.867 658.324 300.486C658.324 290.106 666.039 282.461 676.279 282.461C686.52 282.461 694.235 290.106 694.235 300.486C694.235 310.867 686.52 318.511 676.279 318.511ZM664.076 300.486C664.076 307.921 669.336 313.251 676.279 313.251C683.223 313.251 688.483 307.921 688.483 300.486C688.483 293.052 683.223 287.721 676.279 287.721C669.336 287.721 664.076 293.052 664.076 300.486ZM700.766 317.74L700.766 283.232L706.307 283.232L706.307 288.914C708.551 284.635 712.97 282.531 718.02 282.531C725.525 282.531 730.574 286.95 730.574 295.156L730.574 317.74L724.963 317.74L724.963 296.629C724.963 290.316 722.368 287.651 716.898 287.651C711.076 287.651 706.377 291.789 706.377 298.873L706.377 317.74L700.766 317.74ZM745.145 269.205L745.145 283.232L756.367 283.233L756.367 287.862L745.145 287.862L745.145 308.271C745.145 311.778 746.968 313.321 750.195 313.321C752.018 313.321 753.842 312.83 755.455 311.989L755.455 317.109C753.982 317.81 751.457 318.371 749.353 318.371C742.62 318.371 739.534 315.145 739.534 308.271L739.534 287.862L734.203 287.862L734.203 283.232L739.534 283.232L739.534 274.325L745.145 269.205ZM761.929 317.74L761.929 283.233L767.54 283.233L767.54 317.74L761.929 317.74ZM761.157 274.606C761.157 272.642 762.771 271.029 764.734 271.029C766.768 271.029 768.382 272.642 768.382 274.606C768.382 276.64 766.768 278.253 764.734 278.253C762.771 278.253 761.157 276.64 761.157 274.606ZM775.972 317.74L775.972 283.233L781.513 283.233L781.513 288.914C783.757 284.635 788.176 282.531 793.225 282.531C800.73 282.531 805.78 286.95 805.78 295.156L805.78 317.74L800.169 317.74L800.169 296.629C800.169 290.316 797.574 287.651 792.103 287.651C786.282 287.651 781.583 291.789 781.583 298.873L781.583 317.74L775.972 317.74ZM843.378 283.233L843.378 317.74L837.977 317.74L837.977 311.638C835.803 316.127 831.104 318.441 825.984 318.441C818.409 318.441 813.499 314.093 813.499 305.817L813.499 283.233L819.11 283.233L819.11 304.063C819.11 310.305 821.846 313.181 827.316 313.181C832.998 313.181 837.767 308.903 837.767 301.468L837.767 283.233L843.378 283.233ZM867.645 318.511C857.545 318.511 849.9 310.656 849.9 300.486C849.9 290.246 857.475 282.461 867.575 282.461C877.674 282.461 884.969 290.176 885.179 299.925L856.002 304.133C857.405 309.674 862.104 313.321 867.715 313.321C872.975 313.321 877.043 310.376 878.937 305.817L884.127 307.57C881.532 313.953 875.29 318.511 867.645 318.511ZM855.511 299.504L878.867 296.138C877.113 290.457 873.115 287.581 867.575 287.581C860.631 287.581 855.932 292.491 855.511 299.504Z" fill="#1B1B1B"/>
<mask id="mask1_1498_1428" style="mask-type:alpha" maskUnits="userSpaceOnUse" x="1071" y="271" width="551" height="814">
<path d="M1071.05 546.655C1071.05 405.103 1178.43 286.64 1319.31 272.79V272.79C1481.15 256.878 1621.42 384.032 1621.42 546.655V809.546C1621.42 961.527 1498.21 1084.73 1346.23 1084.73V1084.73C1194.25 1084.73 1071.05 961.527 1071.05 809.546L1071.05 546.655Z" fill="#D9D9D9"/>
</mask>
<g mask="url(#mask1_1498_1428)">
<rect x="1046.87" y="243.087" width="696.23" height="845.012" fill="url(#pattern0)"/>
<mask id="mask2_1498_1428" style="mask-type:alpha" maskUnits="userSpaceOnUse" x="1071" y="183" width="551" height="843">
<path fill-rule="evenodd" clip-rule="evenodd" d="M1071.05 237.851L1621.42 183.74V253.171L1621.42 253.171V1005.06C1621.42 1016.29 1612.32 1025.38 1601.1 1025.38H1091.37C1080.15 1025.38 1071.05 1016.29 1071.05 1005.06V253.171H1071.05V237.851Z" fill="#D9D9D9"/>
</mask>
<g mask="url(#mask2_1498_1428)">
<rect x="1046.87" y="183.74" width="696.23" height="845.012" fill="url(#pattern1)"/>
<rect x="1046.87" y="183.74" width="696.23" height="845.012" fill="#FFC738"/>
</g>
<path fill-rule="evenodd" clip-rule="evenodd" d="M1482.31 429.22H1368.68V540.763H1482.31V429.22ZM1261.93 540.764H1494.36V719.909H1261.93V721.501H1146.58V609.958H1261.93V540.764Z" fill="#FFC738"/>
</g>
</g>
</g>
</g>
</g>
<defs>
<filter id="filter0_dddd_1498_1428" x="36" y="211" width="792" height="468.735" filterUnits="userSpaceOnUse" color-interpolation-filters="sRGB">
<feFlood flood-opacity="0" result="BackgroundImageFix"/>
<feColorMatrix in="SourceAlpha" type="matrix" values="0 0 0 0 0 0 0 0 0 0 0 0 0 0 0 0 0 0 127 0" result="hardAlpha"/>
<feOffset dy="2"/>
<feGaussianBlur stdDeviation="1.5"/>
<feComposite in2="hardAlpha" operator="out"/>
<feColorMatrix type="matrix" values="0 0 0 0 0 0 0 0 0 0 0 0 0 0 0 0 0 0 0.05 0"/>
<feBlend mode="normal" in2="BackgroundImageFix" result="effect1_dropShadow_1498_1428"/>
<feColorMatrix in="SourceAlpha" type="matrix" values="0 0 0 0 0 0 0 0 0 0 0 0 0 0 0 0 0 0 127 0" result="hardAlpha"/>
<feOffset dy="6"/>
<feGaussianBlur stdDeviation="3"/>
<feComposite in2="hardAlpha" operator="out"/>
<feColorMatrix type="matrix" values="0 0 0 0 0 0 0 0 0 0 0 0 0 0 0 0 0 0 0.04 0"/>
<feBlend mode="normal" in2="effect1_dropShadow_1498_1428" result="effect2_dropShadow_1498_1428"/>
<feColorMatrix in="SourceAlpha" type="matrix" values="0 0 0 0 0 0 0 0 0 0 0 0 0 0 0 0 0 0 127 0" result="hardAlpha"/>
<feOffset dy="14"/>
<feGaussianBlur stdDeviation="4"/>
<feComposite in2="hardAlpha" operator="out"/>
<feColorMatrix type="matrix" values="0 0 0 0 0 0 0 0 0 0 0 0 0 0 0 0 0 0 0.03 0"/>
<feBlend mode="normal" in2="effect2_dropShadow_1498_1428" result="effect3_dropShadow_1498_1428"/>
<feColorMatrix in="SourceAlpha" type="matrix" values="0 0 0 0 0 0 0 0 0 0 0 0 0 0 0 0 0 0 127 0" result="hardAlpha"/>
<feOffset dy="25"/>
<feGaussianBlur stdDeviation="5"/>
<feComposite in2="hardAlpha" operator="out"/>
<feColorMatrix type="matrix" values="0 0 0 0 0 0 0 0 0 0 0 0 0 0 0 0 0 0 0.01 0"/>
<feBlend mode="normal" in2="effect3_dropShadow_1498_1428" result="effect4_dropShadow_1498_1428"/>
<feBlend mode="normal" in="SourceGraphic" in2="effect4_dropShadow_1498_1428" result="shape"/>
</filter>
<filter id="filter1_dddd_1498_1428" x="255.5" y="104" width="912" height="536" filterUnits="userSpaceOnUse" color-interpolation-filters="sRGB">
<feFlood flood-opacity="0" result="BackgroundImageFix"/>
<feColorMatrix in="SourceAlpha" type="matrix" values="0 0 0 0 0 0 0 0 0 0 0 0 0 0 0 0 0 0 127 0" result="hardAlpha"/>
<feOffset dy="2"/>
<feGaussianBlur stdDeviation="1.5"/>
<feComposite in2="hardAlpha" operator="out"/>
<feColorMatrix type="matrix" values="0 0 0 0 0 0 0 0 0 0 0 0 0 0 0 0 0 0 0.05 0"/>
<feBlend mode="normal" in2="BackgroundImageFix" result="effect1_dropShadow_1498_1428"/>
<feColorMatrix in="SourceAlpha" type="matrix" values="0 0 0 0 0 0 0 0 0 0 0 0 0 0 0 0 0 0 127 0" result="hardAlpha"/>
<feOffset dy="6"/>
<feGaussianBlur stdDeviation="3"/>
<feComposite in2="hardAlpha" operator="out"/>
<feColorMatrix type="matrix" values="0 0 0 0 0 0 0 0 0 0 0 0 0 0 0 0 0 0 0.04 0"/>
<feBlend mode="normal" in2="effect1_dropShadow_1498_1428" result="effect2_dropShadow_1498_1428"/>
<feColorMatrix in="SourceAlpha" type="matrix" values="0 0 0 0 0 0 0 0 0 0 0 0 0 0 0 0 0 0 127 0" result="hardAlpha"/>
<feOffset dy="14"/>
<feGaussianBlur stdDeviation="4"/>
<feComposite in2="hardAlpha" operator="out"/>
<feColorMatrix type="matrix" values="0 0 0 0 0 0 0 0 0 0 0 0 0 0 0 0 0 0 0.03 0"/>
<feBlend mode="normal" in2="effect2_dropShadow_1498_1428" result="effect3_dropShadow_1498_1428"/>
<feColorMatrix in="SourceAlpha" type="matrix" values="0 0 0 0 0 0 0 0 0 0 0 0 0 0 0 0 0 0 127 0" result="hardAlpha"/>
<feOffset dy="25"/>
<feGaussianBlur stdDeviation="5"/>
<feComposite in2="hardAlpha" operator="out"/>
<feColorMatrix type="matrix" values="0 0 0 0 0 0 0 0 0 0 0 0 0 0 0 0 0 0 0.01 0"/>
<feBlend mode="normal" in2="effect3_dropShadow_1498_1428" result="effect4_dropShadow_1498_1428"/>
<feBlend mode="normal" in="SourceGraphic" in2="effect4_dropShadow_1498_1428" result="shape"/>
</filter>
<filter id="filter2_dddd_1498_1428" x="868.5" y="211" width="792" height="468.735" filterUnits="userSpaceOnUse" color-interpolation-filters="sRGB">
<feFlood flood-opacity="0" result="BackgroundImageFix"/>
<feColorMatrix in="SourceAlpha" type="matrix" values="0 0 0 0 0 0 0 0 0 0 0 0 0 0 0 0 0 0 127 0" result="hardAlpha"/>
<feOffset dy="2"/>
<feGaussianBlur stdDeviation="1.5"/>
<feComposite in2="hardAlpha" operator="out"/>
<feColorMatrix type="matrix" values="0 0 0 0 0 0 0 0 0 0 0 0 0 0 0 0 0 0 0.05 0"/>
<feBlend mode="normal" in2="BackgroundImageFix" result="effect1_dropShadow_1498_1428"/>
<feColorMatrix in="SourceAlpha" type="matrix" values="0 0 0 0 0 0 0 0 0 0 0 0 0 0 0 0 0 0 127 0" result="hardAlpha"/>
<feOffset dy="6"/>
<feGaussianBlur stdDeviation="3"/>
<feComposite in2="hardAlpha" operator="out"/>
<feColorMatrix type="matrix" values="0 0 0 0 0 0 0 0 0 0 0 0 0 0 0 0 0 0 0.04 0"/>
<feBlend mode="normal" in2="effect1_dropShadow_1498_1428" result="effect2_dropShadow_1498_1428"/>
<feColorMatrix in="SourceAlpha" type="matrix" values="0 0 0 0 0 0 0 0 0 0 0 0 0 0 0 0 0 0 127 0" result="hardAlpha"/>
<feOffset dy="14"/>
<feGaussianBlur stdDeviation="4"/>
<feComposite in2="hardAlpha" operator="out"/>
<feColorMatrix type="matrix" values="0 0 0 0 0 0 0 0 0 0 0 0 0 0 0 0 0 0 0.03 0"/>
<feBlend mode="normal" in2="effect2_dropShadow_1498_1428" result="effect3_dropShadow_1498_1428"/>
<feColorMatrix in="SourceAlpha" type="matrix" values="0 0 0 0 0 0 0 0 0 0 0 0 0 0 0 0 0 0 127 0" result="hardAlpha"/>
<feOffset dy="25"/>
<feGaussianBlur stdDeviation="5"/>
<feComposite in2="hardAlpha" operator="out"/>
<feColorMatrix type="matrix" values="0 0 0 0 0 0 0 0 0 0 0 0 0 0 0 0 0 0 0.01 0"/>
<feBlend mode="normal" in2="effect3_dropShadow_1498_1428" result="effect4_dropShadow_1498_1428"/>
<feBlend mode="normal" in="SourceGraphic" in2="effect4_dropShadow_1498_1428" result="shape"/>
</filter>
<filter id="filter3_dddd_1498_1428" x="525.5" y="104" width="912" height="536" filterUnits="userSpaceOnUse" color-interpolation-filters="sRGB">
<feFlood flood-opacity="0" result="BackgroundImageFix"/>
<feColorMatrix in="SourceAlpha" type="matrix" values="0 0 0 0 0 0 0 0 0 0 0 0 0 0 0 0 0 0 127 0" result="hardAlpha"/>
<feOffset dy="2"/>
<feGaussianBlur stdDeviation="1.5"/>
<feComposite in2="hardAlpha" operator="out"/>
<feColorMatrix type="matrix" values="0 0 0 0 0 0 0 0 0 0 0 0 0 0 0 0 0 0 0.05 0"/>
<feBlend mode="normal" in2="BackgroundImageFix" result="effect1_dropShadow_1498_1428"/>
<feColorMatrix in="SourceAlpha" type="matrix" values="0 0 0 0 0 0 0 0 0 0 0 0 0 0 0 0 0 0 127 0" result="hardAlpha"/>
<feOffset dy="6"/>
<feGaussianBlur stdDeviation="3"/>
<feComposite in2="hardAlpha" operator="out"/>
<feColorMatrix type="matrix" values="0 0 0 0 0 0 0 0 0 0 0 0 0 0 0 0 0 0 0.04 0"/>
<feBlend mode="normal" in2="effect1_dropShadow_1498_1428" result="effect2_dropShadow_1498_1428"/>
<feColorMatrix in="SourceAlpha" type="matrix" values="0 0 0 0 0 0 0 0 0 0 0 0 0 0 0 0 0 0 127 0" result="hardAlpha"/>
<feOffset dy="14"/>
<feGaussianBlur stdDeviation="4"/>
<feComposite in2="hardAlpha" operator="out"/>
<feColorMatrix type="matrix" values="0 0 0 0 0 0 0 0 0 0 0 0 0 0 0 0 0 0 0.03 0"/>
<feBlend mode="normal" in2="effect2_dropShadow_1498_1428" result="effect3_dropShadow_1498_1428"/>
<feColorMatrix in="SourceAlpha" type="matrix" values="0 0 0 0 0 0 0 0 0 0 0 0 0 0 0 0 0 0 127 0" result="hardAlpha"/>
<feOffset dy="25"/>
<feGaussianBlur stdDeviation="5"/>
<feComposite in2="hardAlpha" operator="out"/>
<feColorMatrix type="matrix" values="0 0 0 0 0 0 0 0 0 0 0 0 0 0 0 0 0 0 0.01 0"/>
<feBlend mode="normal" in2="effect3_dropShadow_1498_1428" result="effect4_dropShadow_1498_1428"/>
<feBlend mode="normal" in="SourceGraphic" in2="effect4_dropShadow_1498_1428" result="shape"/>
</filter>
<pattern id="pattern0" patternContentUnits="objectBoundingBox" width="1" height="1">
<use xlink:href="#image0_1498_1428" transform="matrix(0.00291054 0 0 0.00239808 -1.2479 -0.437353)"/>
</pattern>
<pattern id="pattern1" patternContentUnits="objectBoundingBox" width="1" height="1">
<use xlink:href="#image1_1498_1428" transform="matrix(0.00166667 0 0 0.00137322 0 -0.0767504)"/>
</pattern>
<clipPath id="clip0_1498_1428">
<rect width="1697" height="520" fill="white"/>
</clipPath>
<clipPath id="clip1_1498_1428">
<path d="M46 224C46 217.373 51.3726 212 58 212H806C812.627 212 818 217.373 818 224V632.735C818 639.363 812.627 644.735 806 644.735H58C51.3726 644.735 46 639.363 46 632.735V224Z" fill="white"/>
</clipPath>
<clipPath id="clip2_1498_1428">
<rect width="519.619" height="363" rx="25.1429" transform="matrix(-1 0 0 1 538.952 212)" fill="white"/>
</clipPath>
<clipPath id="clip3_1498_1428">
<path d="M265.5 117C265.5 110.373 270.873 105 277.5 105H1145.5C1152.13 105 1157.5 110.373 1157.5 117V593C1157.5 599.627 1152.13 605 1145.5 605H277.5C270.873 605 265.5 599.627 265.5 593V117Z" fill="white"/>
</clipPath>
<clipPath id="clip4_1498_1428">
<rect width="892" height="623.141" rx="43.1613" transform="matrix(-1 0 0 1 1157 -4.07056)" fill="white"/>
</clipPath>
<clipPath id="clip5_1498_1428">
<path d="M878.5 224C878.5 217.373 883.873 212 890.5 212H1638.5C1645.13 212 1650.5 217.373 1650.5 224V632.735C1650.5 639.363 1645.13 644.735 1638.5 644.735H890.5C883.873 644.735 878.5 639.363 878.5 632.735V224Z" fill="white"/>
</clipPath>
<clipPath id="clip6_1498_1428">
<rect x="919.669" y="168.845" width="772" height="539.31" rx="37.3548" fill="white"/>
</clipPath>
<clipPath id="clip7_1498_1428">
<path d="M535.5 117C535.5 110.373 540.873 105 547.5 105H1415.5C1422.13 105 1427.5 110.373 1427.5 117V593C1427.5 599.627 1422.13 605 1415.5 605H547.5C540.873 605 535.5 599.627 535.5 593V117Z" fill="white"/>
</clipPath>
<clipPath id="clip8_1498_1428">
<rect x="533.333" y="83.9294" width="896" height="623.141" rx="43.1613" fill="white"/>
</clipPath>
</defs>
</svg>
